<svg width="30" height="29" viewBox="0 0 30 29" fill="none" xmlns="http://www.w3.org/2000/svg">
<path d="M16.209 10.2708H11.3756C9.03994 10.2708 7.14648 8.37737 7.14648 6.04167C7.14648 3.70596 9.03994 1.8125 11.3756 1.8125H16.209V10.2708Z" fill="#E64A19"/>
<path d="M15.6048 18.7292H11.3757C9.03994 18.7292 7.14648 16.8358 7.14648 14.5C7.14648 12.1643 9.03994 10.2709 11.3757 10.2709H15.6048V18.7292Z" fill="#7C4DFF"/>
<path d="M11.3757 27.1875C9.03994 27.1875 7.14648 25.294 7.14648 22.9583C7.14648 20.6226 9.03994 18.7291 11.3757 18.7291H15.6048V22.9583C15.6048 25.294 13.7114 27.1875 11.3757 27.1875Z" fill="#66BB6A"/>
<path d="M19.8327 10.2708H15.6035V1.8125H19.8327C22.1684 1.8125 24.0618 3.70596 24.0618 6.04167C24.0618 8.37737 22.1684 10.2708 19.8327 10.2708Z" fill="#FF7043"/>
<path d="M19.8327 18.7292C22.1684 18.7292 24.0618 16.8357 24.0618 14.5C24.0618 12.1643 22.1684 10.2709 19.8327 10.2709C17.497 10.2709 15.6035 12.1643 15.6035 14.5C15.6035 16.8357 17.497 18.7292 19.8327 18.7292Z" fill="#29B6F6"/>
</svg>
