<svg width="117" height="21" viewBox="0 0 117 21" fill="none" xmlns="http://www.w3.org/2000/svg">
<path d="M10.7077 0C12.6375 0 14.4422 0.509253 16.1219 1.52776C17.8194 2.56414 19.1149 3.95788 20.0083 5.709C20.7588 7.20102 21.134 8.80025 21.134 10.5067C21.134 12.4901 20.6337 14.3261 19.6331 16.0147C18.6056 17.739 17.2029 19.0434 15.425 19.9279C13.9777 20.6426 12.3963 21 10.6809 21C8.6171 21 6.73197 20.4863 5.02553 19.4588C3.33695 18.4403 2.04148 17.0421 1.13912 15.2642C0.379706 13.7543 0 12.1729 0 10.5201C0 8.54563 0.513721 6.70964 1.54116 5.01213C2.55073 3.32355 3.95788 2.02808 5.7626 1.12572C7.23676 0.375239 8.88513 0 10.7077 0ZM10.6541 3.61838C8.68858 3.61838 7.06254 4.27505 5.77601 5.58839C5.15061 6.22272 4.66369 6.9732 4.31525 7.83982C3.96682 8.70644 3.7926 9.5954 3.7926 10.5067C3.7926 11.7754 4.12763 12.977 4.7977 14.1117C5.45884 15.2374 6.37013 16.0862 7.53159 16.6579C8.49649 17.1404 9.53733 17.3816 10.6541 17.3816C12.5929 17.3816 14.1876 16.7339 15.4384 15.4384C16.037 14.822 16.5016 14.0804 16.8322 13.2138C17.1717 12.3472 17.3414 11.4537 17.3414 10.5335C17.3414 9.22017 17.0198 8.00064 16.3765 6.87492C15.7422 5.776 14.8398 4.93172 13.6694 4.34205C12.7224 3.8596 11.7173 3.61838 10.6541 3.61838Z" fill="#EE4E34"/>
<path d="M23.446 20.6382V5.44097H26.8232V6.90172C27.4754 6.24952 28.132 5.78494 28.7932 5.50798C29.4543 5.22208 30.2271 5.07913 31.1116 5.07913C33.2648 5.07913 34.8506 5.81621 35.8691 7.29036C36.2801 7.88003 36.5615 8.55456 36.7134 9.31398C36.8742 10.0734 36.9546 11.1366 36.9546 12.5035V20.6382H33.3095V13.2138C33.3095 11.284 33.0727 10.0108 32.5992 9.39438C32.0899 8.75112 31.3529 8.42948 30.388 8.42948C29.1818 8.42948 28.2884 8.89853 27.7077 9.83663C27.4754 10.2029 27.3146 10.6496 27.2252 11.1768C27.1359 11.695 27.0912 12.4633 27.0912 13.4818V20.6382H23.446Z" fill="#EE4E34"/>
<path d="M39.6553 20.6382V0.361838H43.3005V6.84812C43.7919 6.35673 44.2252 5.99936 44.6004 5.776C45.5474 5.18634 46.6866 4.89151 48.0178 4.89151C50.2424 4.89151 52.0873 5.67773 53.5525 7.25016C54.9731 8.77792 55.6834 10.6765 55.6834 12.9458C55.6834 15.0185 55.0848 16.8188 53.8876 18.3465C52.5028 20.1155 50.631 21 48.2724 21C47.1467 21 46.1773 20.8213 45.3643 20.4639C44.5513 20.1066 43.7651 19.5124 43.0056 18.6816V20.6382H39.6553ZM47.5085 8.24186C46.1952 8.24186 45.1231 8.68858 44.2922 9.582C43.4881 10.4486 43.0861 11.5609 43.0861 12.919C43.0861 14.4646 43.5864 15.6796 44.587 16.5641C45.409 17.2878 46.4096 17.6496 47.5889 17.6496C48.8933 17.6496 49.9476 17.2297 50.7517 16.3899C51.5915 15.5322 52.0114 14.3931 52.0114 12.9726C52.0114 11.6145 51.6049 10.4933 50.7919 9.60881C49.9342 8.69751 48.8397 8.24186 47.5085 8.24186Z" fill="#EE4E34"/>
<path d="M64.8971 5.07913C66.3445 5.07913 67.7069 5.44097 68.9845 6.16465C70.3693 6.94193 71.4191 8.03191 72.1339 9.43459C72.7146 10.5782 73.005 11.8156 73.005 13.1468C73.005 14.5852 72.6074 15.9387 71.8122 17.2074C71.0171 18.4761 69.9405 19.4499 68.5825 20.1289C67.43 20.7096 66.2104 21 64.9239 21C63.4051 21 61.9935 20.6069 60.6891 19.8207C59.3936 19.0345 58.4064 17.9802 57.7274 16.6579C57.1377 15.5322 56.8429 14.3306 56.8429 13.053C56.8429 11.5609 57.2315 10.1806 58.0088 8.91193C58.7861 7.64327 59.8582 6.6605 61.2251 5.96362C62.3776 5.37396 63.6016 5.07913 64.8971 5.07913ZM64.9105 8.42948C63.7044 8.42948 62.6725 8.87173 61.8148 9.75622C60.9482 10.6675 60.5149 11.7441 60.5149 12.986C60.5149 14.3082 60.9526 15.4205 61.8282 16.3229C62.6769 17.2074 63.7133 17.6496 64.9373 17.6496C66.1256 17.6496 67.1441 17.2163 67.9928 16.3497C68.8863 15.4474 69.333 14.3484 69.333 13.053C69.333 11.7486 68.8907 10.6452 68.0062 9.74282C67.1396 8.86726 66.1077 8.42948 64.9105 8.42948Z" fill="#EE4E34"/>
<path d="M90.1925 5.44097V20.6382H86.8422V18.6682C86.2883 19.3025 85.7567 19.776 85.2474 20.0887C84.2736 20.6962 83.1255 21 81.8032 21C79.4357 21 77.5148 20.1602 76.0406 18.4805C74.772 17.0421 74.1376 15.2508 74.1376 13.1066C74.1376 10.7837 74.8524 8.8762 76.2819 7.38417C77.756 5.84748 79.6188 5.07913 81.8703 5.07913C82.9692 5.07913 83.9117 5.27122 84.698 5.65539C85.4931 6.03063 86.2078 6.63816 86.8422 7.47798V5.44097H90.1925ZM82.2455 8.42948C80.9143 8.42948 79.8332 8.8896 79.0024 9.80983C78.2072 10.6943 77.8096 11.82 77.8096 13.187C77.8096 14.3842 78.167 15.3893 78.8817 16.2023C79.7126 17.1672 80.8562 17.6496 82.3125 17.6496C83.7598 17.6496 84.8677 17.194 85.636 16.2827C85.9666 15.8896 86.2302 15.4071 86.4267 14.8354C86.6322 14.2636 86.735 13.6962 86.735 13.1334C86.735 11.8379 86.3463 10.7435 85.569 9.85003C84.7471 8.903 83.6392 8.42948 82.2455 8.42948Z" fill="#EE4E34"/>
<path d="M92.6385 20.6382V5.44097H95.9889V6.92853C96.4535 6.23165 96.9225 5.7492 97.396 5.48117C97.8696 5.21315 98.495 5.07913 99.2722 5.07913C99.3169 5.07913 99.4107 5.0836 99.5537 5.09253V8.5903C97.3737 8.64391 96.2837 9.8411 96.2837 12.1819V20.6382H92.6385Z" fill="#EE4E34"/>
<path d="M116.071 0.361838V20.6382H112.721V18.6548C111.372 20.2183 109.697 21 107.695 21C105.56 21 103.764 20.2495 102.308 18.7486C100.816 17.194 100.07 15.2776 100.07 12.9994C100.07 10.6943 100.825 8.75558 102.335 7.18315C103.8 5.65539 105.587 4.89151 107.695 4.89151C108.651 4.89151 109.545 5.06126 110.376 5.40077C111.215 5.73133 111.899 6.19592 112.426 6.79451V0.361838H116.071ZM108.191 8.24186C106.824 8.24186 105.712 8.74665 104.854 9.75622C104.113 10.6228 103.742 11.6548 103.742 12.8519C103.742 14.3261 104.256 15.5367 105.283 16.4837C106.114 17.261 107.115 17.6496 108.285 17.6496C109.446 17.6496 110.443 17.2476 111.273 16.4435C112.221 15.5233 112.694 14.3663 112.694 12.9726C112.694 11.6145 112.283 10.5067 111.461 9.64901C110.577 8.71091 109.487 8.24186 108.191 8.24186Z" fill="#EE4E34"/>
</svg>
