<svg width="497" height="699" viewBox="0 0 497 699" fill="none" xmlns="http://www.w3.org/2000/svg">
<path d="M75.1589 338.483L6.60516 397.795L351.186 457.553L484.664 375.943V338.483H75.1589Z" fill="#F495BB"/>
<path fill-rule="evenodd" clip-rule="evenodd" d="M75.4699 337.891H485.848V377.175L351.672 459.33L4.828 399.096L75.4699 337.891ZM483.479 375.302V339.668H76.3685L10.1595 397.086L351.204 456.368L483.479 375.302Z" fill="black"/>
<path d="M73.2188 340.215L6.27881 397.653V682.614L73.2188 605.141V340.215Z" fill="#FA83B3"/>
<path fill-rule="evenodd" clip-rule="evenodd" d="M74.73 337.891V605.929L4.828 686.216V397.414L74.73 337.891ZM72.3604 605.04V343.222L7.19756 398.574V679.699L72.3604 605.04Z" fill="black"/>
<path d="M175.088 268.581L303.392 361.087L158.849 425.564L175.088 268.581Z" fill="#66C7FF"/>
<path fill-rule="evenodd" clip-rule="evenodd" d="M174.387 266.696L306.023 361.603L157.727 427.755L174.387 266.696ZM301.295 361.117L176.322 271.013L160.506 423.92L301.295 361.117Z" fill="black"/>
<path d="M418.316 397.129H6.01276V686.216H418.316V397.129Z" fill="#FFE1ED"/>
<path fill-rule="evenodd" clip-rule="evenodd" d="M5.09399 396.218H419.767V687.673H5.09399V396.218ZM417.398 685.303V398.588H7.46355V685.303H417.398Z" fill="black"/>
<path d="M484.397 340.23L418.642 397.867V683.816L484.397 606.071V340.23Z" fill="#FFC6DD"/>
<path fill-rule="evenodd" clip-rule="evenodd" d="M485.848 337.891V606.782L417.724 687.323V397.604L485.848 337.891ZM483.479 605.911V343.118L420.093 398.678V680.854L483.479 605.911Z" fill="black"/>
<path d="M397.286 356.255C434.093 356.255 463.93 326.417 463.93 289.611C463.93 252.804 434.093 222.967 397.286 222.967C360.48 222.967 330.642 252.804 330.642 289.611C330.642 326.417 360.48 356.255 397.286 356.255Z" fill="#787EFF"/>
<path fill-rule="evenodd" clip-rule="evenodd" d="M329.724 289.884C329.724 252.424 360.09 222.056 397.553 222.056C435.015 222.056 465.381 252.424 465.381 289.884C465.381 327.345 435.015 357.713 397.553 357.713C360.09 357.713 329.724 327.345 329.724 289.884ZM463.012 289.884C463.012 253.732 433.706 224.425 397.553 224.425C361.399 224.425 332.094 253.732 332.094 289.884C332.094 326.036 361.399 355.343 397.553 355.343C433.706 355.343 463.012 326.036 463.012 289.884Z" fill="black"/>
<path d="M267.849 13.8535L291.343 86.0343H367.37L305.863 130.645L329.357 202.826L267.849 158.215L206.341 202.826L229.835 130.645L168.328 86.0343H244.355L267.849 13.8535Z" fill="#FEBA57"/>
<path fill-rule="evenodd" clip-rule="evenodd" d="M268.115 10.2991L292.469 85.1232H371.286L307.521 131.371L331.874 206.198L268.114 159.953L204.353 206.198L228.707 131.371L164.942 85.1232H243.761L268.115 10.2991ZM268.115 17.9546L245.482 87.4928H172.245L231.495 130.465L208.862 200L268.115 157.026L327.366 200L304.737 130.465L363.982 87.4928H290.748L268.115 17.9546Z" fill="black"/>
<path d="M67.722 139.187C69.7107 128.467 85.0808 128.467 87.0695 139.187C88.4924 146.856 97.8551 149.895 103.515 144.527C111.43 137.022 123.865 146.051 119.169 155.891C115.809 162.931 121.596 170.89 129.333 169.872C140.149 168.45 144.899 183.059 135.312 188.261C128.453 191.983 128.453 201.821 135.312 205.543C144.899 210.745 140.149 225.354 129.333 223.931C121.596 222.914 115.809 230.873 119.169 237.912C123.865 247.753 111.43 256.782 103.515 249.277C97.8551 243.909 88.4924 246.948 87.0695 254.617C85.0808 265.337 69.7107 265.337 67.722 254.617C66.2991 246.948 56.9364 243.909 51.2755 249.277C43.3618 256.782 30.9263 247.753 35.6228 237.912C38.9828 230.873 33.1964 222.914 25.4586 223.931C14.6421 225.354 9.89236 210.745 19.4802 205.543C26.3383 201.821 26.3383 191.983 19.4802 188.261C9.89236 183.059 14.6421 168.45 25.4586 169.872C33.1964 170.89 38.9828 162.931 35.6228 155.891C30.9263 146.051 43.3618 137.022 51.2755 144.527C56.9364 149.895 66.2991 146.856 67.722 139.187Z" fill="#FF5900"/>
<path fill-rule="evenodd" clip-rule="evenodd" d="M52.5083 144.08C57.5009 148.609 65.5847 145.921 66.824 139.244L66.8945 138.892C69.3582 127.394 85.9451 127.306 88.4308 138.893L88.5404 139.442C89.8981 145.96 97.8628 148.574 102.806 144.091L103.231 143.698C111.987 135.843 125.459 145.515 120.647 156.366L120.42 156.859C117.685 162.929 122.59 169.721 129.227 168.997L129.802 168.929C141.505 167.719 146.715 183.458 136.442 189.409L135.966 189.675C130.184 192.98 130.157 201.355 135.952 204.668L136.457 204.951C146.638 210.845 141.596 226.64 129.784 225.42L129.244 225.356C122.622 224.632 117.674 231.394 120.412 237.476L120.655 238.002C125.424 248.753 112.057 258.567 103.218 250.642L102.819 250.273C97.8871 245.798 89.9058 248.361 88.5439 254.891L88.4308 255.46C85.9664 266.957 69.3801 267.046 66.8909 255.442L66.7849 254.909C65.4265 248.392 57.4618 245.778 52.5189 250.261L52.0936 250.654C43.3381 258.509 29.8654 248.837 34.6774 237.986L34.9054 237.492C37.6399 231.423 32.7343 224.63 26.0984 225.354L25.5232 225.422C13.8193 226.633 8.60925 210.893 18.8837 204.942L19.3582 204.677C25.1411 201.372 25.1671 192.996 19.3736 189.683L19.1816 189.576C8.58555 183.827 13.609 167.699 25.5409 168.932L26.0812 168.996C32.7029 169.719 37.6518 162.958 34.9131 156.875L34.6702 156.349C29.9003 145.599 43.2682 135.784 52.1066 143.709L52.5083 144.08ZM86.111 139.374L86.0518 139.118C83.8812 130.219 70.8611 130.472 69.1538 139.676L69.1029 139.932C67.35 148.337 57.0063 151.615 50.7394 145.671L50.5125 145.463C43.5229 139.195 32.8854 147.12 36.9646 155.667L37.0682 155.89C40.6019 163.738 34.1342 172.447 25.5872 171.322L25.2809 171.286C15.9395 170.322 11.9959 182.981 20.3232 187.499L20.5382 187.62C28.0124 191.893 27.9028 202.739 20.3261 206.85L20.0572 207.001C11.9332 211.706 16.1883 224.264 25.5836 223.029L25.8282 223C34.3877 222.066 40.6777 230.904 36.9657 238.682L36.8372 238.961C33.0323 247.54 43.8624 255.201 50.7365 248.682L50.9171 248.514C57.293 242.731 67.5787 246.187 69.1503 254.659L69.2107 254.961C71.1792 264.136 84.4464 263.973 86.1738 254.662L86.2212 254.42C87.9788 245.996 98.3326 242.749 104.585 248.68L104.812 248.889C111.802 255.157 122.439 247.231 118.361 238.685L118.257 238.462C114.723 230.614 121.191 221.904 129.738 223.029L130.044 223.065C139.385 224.029 143.329 211.37 135.002 206.852L134.787 206.732C127.312 202.458 127.422 191.613 134.999 187.501L135.268 187.351C143.392 182.645 139.136 170.087 129.742 171.322L129.497 171.351C120.937 172.285 114.647 163.447 118.36 155.67L118.488 155.39C122.292 146.811 111.463 139.151 104.588 145.67L104.408 145.837C98.0317 151.62 87.746 148.165 86.1744 139.692L86.111 139.374Z" fill="black"/>
</svg>
